<svg width="74" height="56" viewBox="0 0 74 56" fill="none" xmlns="http://www.w3.org/2000/svg">
    <path
        d="M41.6127 14.1486C52.9529 14.1486 59.3843 21.4663 60.3182 30.2996H60.6034C67.8997 30.2996 73.8159 36.0505 73.8159 43.1451C73.8159 50.2396 67.8997 55.9906 60.6034 55.9906H22.6221C15.3258 55.9906 9.40957 50.2396 9.40957 43.1451C9.40957 36.0505 15.3258 30.2996 22.6221 30.2996H22.9073C23.8504 21.4059 30.2726 14.1486 41.6127 14.1486ZM29.6148 0.201294C36.313 0.201294 42.1556 4.05075 45.0401 9.70872C43.903 9.56782 42.7584 9.49795 41.6127 9.49951C30.6177 9.49951 22.6037 15.5759 19.7422 24.7765L19.457 25.7714L19.2453 26.6408L18.4863 26.7802C15.7081 27.3521 13.1131 28.61 10.933 30.4417C8.75277 32.2734 7.05512 34.622 5.99143 37.2779C3.79982 35.9285 2.09119 33.9079 1.11392 31.5099C0.136645 29.1118 -0.0583303 26.4612 0.557335 23.9435C1.173 21.4258 2.56721 19.1721 4.53731 17.51C6.5074 15.848 8.95068 14.8643 11.512 14.7019L12.5333 14.6786C13.2427 10.6215 15.3437 6.94655 18.4674 4.29905C21.5911 1.65156 25.5379 0.200734 29.6148 0.201294Z"
        fill="#FFFFFF" />
</svg>
