<svg width="59" height="61" viewBox="0 0 59 61" fill="none" xmlns="http://www.w3.org/2000/svg">
    <path
        d="M54.692 15.7473C52.5902 13.6505 49.7828 12.1866 46.5242 11.486C46.2187 11.4203 45.9328 11.2841 45.6893 11.0882C45.4458 10.8924 45.2514 10.6423 45.1217 10.3581C43.9234 7.74081 42.1092 5.45266 39.834 3.68922C36.9226 1.4621 33.382 0.285245 29.5933 0.285245C25.276 0.27154 21.1048 1.84725 17.8749 4.71192C14.8419 7.41404 12.7476 11.1464 11.8051 15.469C11.7265 15.8349 11.5474 16.1717 11.2879 16.4413C11.0284 16.711 10.6988 16.9029 10.3362 16.9956C7.20298 17.7851 5.86069 18.5672 4.16873 20.0737C1.76991 22.2093 0.516602 25.1182 0.516602 28.4595C0.516602 32.2884 1.92406 35.4329 4.58608 37.5535C6.91848 39.4097 10.1044 40.391 13.8016 40.391H43.129C47.2899 40.391 51.1639 38.9547 54.0327 36.3453C57.0206 33.6319 58.6699 29.8695 58.6699 25.7524C58.6699 21.8057 57.2913 18.3466 54.692 15.7473Z"
        fill="white" />
    <path
        d="M11.5451 54.4278C11.1822 54.4276 10.8261 54.3289 10.5149 54.1423C10.2037 53.9556 9.94893 53.688 9.77784 53.3679C9.60675 53.0479 9.52572 52.6874 9.5434 52.3249C9.56107 51.9624 9.67679 51.6115 9.8782 51.3096L13.8888 45.2938C14.0349 45.0747 14.2228 44.8866 14.4417 44.7401C14.6605 44.5936 14.9061 44.4917 15.1643 44.4402C15.4226 44.3886 15.6885 44.3884 15.9468 44.4396C16.2051 44.4908 16.4508 44.5924 16.6699 44.7385C16.8889 44.8847 17.0771 45.0726 17.2235 45.2914C17.37 45.5103 17.4719 45.7559 17.5235 46.0141C17.575 46.2723 17.5752 46.5382 17.524 46.7965C17.4728 47.0549 17.3712 47.3006 17.2251 47.5196L13.2145 53.5355C13.0312 53.8102 12.7829 54.0354 12.4917 54.191C12.2005 54.3467 11.8753 54.4281 11.5451 54.4278Z"
        fill="white" />
    <path
        d="M17.5624 60.4437C17.1996 60.4433 16.8437 60.3444 16.5326 60.1576C16.2216 59.9709 15.967 59.7032 15.7961 59.3832C15.6252 59.0632 15.5442 58.7028 15.562 58.3404C15.5797 57.9781 15.6954 57.6273 15.8968 57.3255L23.9179 45.2938C24.0641 45.0747 24.2519 44.8866 24.4708 44.7401C24.6897 44.5936 24.9352 44.4917 25.1935 44.4402C25.4517 44.3886 25.7176 44.3884 25.9759 44.4396C26.2342 44.4908 26.4799 44.5924 26.699 44.7385C26.9181 44.8847 27.1062 45.0726 27.2527 45.2914C27.3991 45.5103 27.501 45.7559 27.5526 46.0141C27.6041 46.2723 27.6043 46.5382 27.5531 46.7965C27.5019 47.0549 27.4004 47.3006 27.2542 47.5196L19.2331 59.5514C19.0497 59.8262 18.8012 60.0515 18.5097 60.2072C18.2183 60.3629 17.8928 60.4441 17.5624 60.4437Z"
        fill="white" />
    <path
        d="M31.5988 54.4279C31.2359 54.4276 30.8798 54.3289 30.5686 54.1423C30.2574 53.9556 30.0026 53.688 29.8315 53.3679C29.6605 53.0479 29.5794 52.6874 29.5971 52.3249C29.6148 51.9624 29.7305 51.6115 29.9319 51.3096L33.9425 45.2938C34.2377 44.8513 34.6965 44.5443 35.218 44.4402C35.7396 44.3361 36.2812 44.4434 36.7236 44.7386C37.166 45.0337 37.473 45.4926 37.5772 46.0141C37.6813 46.5357 37.574 47.0772 37.2788 47.5196L33.2682 53.5355C33.0849 53.8102 32.8367 54.0354 32.5454 54.1911C32.2542 54.3467 31.929 54.4281 31.5988 54.4279Z"
        fill="white" />
    <path
        d="M37.6144 60.4437C37.2515 60.4435 36.8955 60.3448 36.5842 60.1581C36.273 59.9715 36.0183 59.7038 35.8472 59.3838C35.6761 59.0637 35.5951 58.7033 35.6127 58.3408C35.6304 57.9783 35.7461 57.6274 35.9475 57.3255L43.9687 45.2938C44.2639 44.8513 44.7227 44.5443 45.2442 44.4402C45.7658 44.3361 46.3074 44.4434 46.7498 44.7386C47.1922 45.0337 47.4992 45.4926 47.6034 46.0141C47.7075 46.5357 47.6002 47.0772 47.305 47.5196L39.2838 59.5514C39.1006 59.8261 38.8523 60.0512 38.5611 60.2069C38.2698 60.3626 37.9447 60.4439 37.6144 60.4437Z"
        fill="white" />
</svg>
